<?xml version="1.0" encoding="UTF-8" standalone="no"?>
<svg
   xmlns:dc="http://purl.org/dc/elements/1.1/"
   xmlns:cc="http://creativecommons.org/ns#"
   xmlns:rdf="http://www.w3.org/1999/02/22-rdf-syntax-ns#"
   xmlns:svg="http://www.w3.org/2000/svg"
   xmlns="http://www.w3.org/2000/svg"
   width="1651"
   height="859.97803"
   xml:space="preserve"
   overflow="hidden"
   version="1.1"
   id="svg305"><metadata
     id="metadata309"><rdf:RDF><cc:Work
         rdf:about=""><dc:format>image/svg+xml</dc:format><dc:type
           rdf:resource="http://purl.org/dc/dcmitype/StillImage" /><dc:title></dc:title></cc:Work></rdf:RDF></metadata><defs
     id="defs113"><clipPath
       id="clip0"><rect
         x="1327"
         y="487"
         width="1651"
         height="980"
         id="rect2" /></clipPath><clipPath
       id="clip1"><rect
         x="1328"
         y="487"
         width="1647"
         height="977"
         id="rect5" /></clipPath><clipPath
       id="clip2"><rect
         x="1328"
         y="487"
         width="1647"
         height="977"
         id="rect8" /></clipPath><clipPath
       id="clip3"><rect
         x="1328"
         y="487"
         width="1647"
         height="977"
         id="rect11" /></clipPath><clipPath
       id="clip4"><rect
         x="1438"
         y="538"
         width="1490"
         height="719"
         id="rect14" /></clipPath><clipPath
       id="clip5"><rect
         x="1328"
         y="487"
         width="1647"
         height="977"
         id="rect17" /></clipPath><clipPath
       id="clip6"><rect
         x="1438"
         y="538"
         width="1490"
         height="719"
         id="rect20" /></clipPath><clipPath
       id="clip7"><rect
         x="1328"
         y="487"
         width="1647"
         height="977"
         id="rect23" /></clipPath><clipPath
       id="clip8"><rect
         x="1438"
         y="538"
         width="1490"
         height="719"
         id="rect26" /></clipPath><clipPath
       id="clip9"><rect
         x="1328"
         y="487"
         width="1647"
         height="977"
         id="rect29" /></clipPath><clipPath
       id="clip10"><rect
         x="1438"
         y="538"
         width="1490"
         height="719"
         id="rect32" /></clipPath><clipPath
       id="clip11"><rect
         x="1328"
         y="487"
         width="1647"
         height="977"
         id="rect35" /></clipPath><clipPath
       id="clip12"><rect
         x="1328"
         y="487"
         width="1647"
         height="977"
         id="rect38" /></clipPath><clipPath
       id="clip13"><rect
         x="1328"
         y="487"
         width="1647"
         height="977"
         id="rect41" /></clipPath><clipPath
       id="clip14"><rect
         x="1328"
         y="487"
         width="1647"
         height="977"
         id="rect44" /></clipPath><clipPath
       id="clip15"><rect
         x="1328"
         y="487"
         width="1647"
         height="977"
         id="rect47" /></clipPath><clipPath
       id="clip16"><rect
         x="1328"
         y="487"
         width="1647"
         height="977"
         id="rect50" /></clipPath><clipPath
       id="clip17"><rect
         x="1328"
         y="487"
         width="1647"
         height="977"
         id="rect53" /></clipPath><clipPath
       id="clip18"><rect
         x="1328"
         y="487"
         width="1647"
         height="977"
         id="rect56" /></clipPath><clipPath
       id="clip19"><rect
         x="1328"
         y="487"
         width="1647"
         height="977"
         id="rect59" /></clipPath><clipPath
       id="clip20"><rect
         x="1328"
         y="487"
         width="1647"
         height="977"
         id="rect62" /></clipPath><clipPath
       id="clip21"><rect
         x="1328"
         y="487"
         width="1647"
         height="977"
         id="rect65" /></clipPath><clipPath
       id="clip22"><rect
         x="1328"
         y="487"
         width="1647"
         height="977"
         id="rect68" /></clipPath><clipPath
       id="clip23"><rect
         x="1328"
         y="487"
         width="1647"
         height="977"
         id="rect71" /></clipPath><clipPath
       id="clip24"><rect
         x="1328"
         y="487"
         width="1647"
         height="977"
         id="rect74" /></clipPath><clipPath
       id="clip25"><rect
         x="1328"
         y="487"
         width="1647"
         height="977"
         id="rect77" /></clipPath><clipPath
       id="clip26"><rect
         x="1328"
         y="487"
         width="1647"
         height="977"
         id="rect80" /></clipPath><clipPath
       id="clip27"><rect
         x="1328"
         y="487"
         width="1647"
         height="977"
         id="rect83" /></clipPath><clipPath
       id="clip28"><rect
         x="1328"
         y="487"
         width="1647"
         height="977"
         id="rect86" /></clipPath><clipPath
       id="clip29"><rect
         x="1328"
         y="487"
         width="1647"
         height="977"
         id="rect89" /></clipPath><clipPath
       id="clip30"><rect
         x="1328"
         y="487"
         width="1647"
         height="977"
         id="rect92" /></clipPath><clipPath
       id="clip31"><rect
         x="1328"
         y="487"
         width="1647"
         height="977"
         id="rect95" /></clipPath><clipPath
       id="clip32"><rect
         x="1328"
         y="487"
         width="1647"
         height="977"
         id="rect98" /></clipPath><clipPath
       id="clip33"><rect
         x="1328"
         y="487"
         width="1647"
         height="977"
         id="rect101" /></clipPath><clipPath
       id="clip34"><rect
         x="1328"
         y="487"
         width="1647"
         height="977"
         id="rect104" /></clipPath><clipPath
       id="clip35"><rect
         x="1328"
         y="487"
         width="1647"
         height="977"
         id="rect107" /></clipPath><clipPath
       id="clip36"><rect
         x="1328"
         y="487"
         width="1647"
         height="977"
         id="rect110" /></clipPath></defs><g
     clip-path="url(#clip0)"
     transform="translate(-1327,-607.02197)"
     id="g303"><rect
       x="1328"
       y="607.02197"
       width="1648"
       height="857.97803"
       fill="#ffffff"
       id="rect115"
       style="stroke-width:0.937109" /><g
       clip-path="url(#clip1)"
       id="g119"><path
         d="m 1438.5,1134.54 h 1487 m -1487,-119.01 h 1487 m -1487,-120 h 1487 m -1487,-119.004 h 1487 m -1487,-119.004 h 1487"
         stroke="#d9d9d9"
         stroke-width="3.4375"
         stroke-linejoin="round"
         stroke-miterlimit="10"
         fill="none"
         id="path117" /></g><g
       clip-path="url(#clip2)"
       id="g123"><path
         d="m 1438.5,1253.5 h 1487"
         stroke="#d9d9d9"
         stroke-width="3.4375"
         stroke-linejoin="round"
         stroke-miterlimit="10"
         fill="none"
         fill-rule="evenodd"
         id="path121" /></g><g
       clip-path="url(#clip3)"
       id="g127"><path
         d="m 1438.5,1253.5 v 13 m 247.06,-13 v 13 m 248,-13 v 13 m 248.01,-13 v 13 m 248.01,-13 v 13 m 248.01,-13 v 13 m 247.91,-13 v 13"
         stroke="#d9d9d9"
         stroke-width="3.4375"
         stroke-linejoin="round"
         stroke-miterlimit="10"
         fill="none"
         id="path125" /></g><g
       clip-path="url(#clip4)"
       id="g131"><path
         d="m 1562,1254 h 248.06 l 248.01,-597 h 247.01 248 247.92"
         stroke="#ff0000"
         stroke-width="10.3125"
         stroke-linecap="round"
         stroke-linejoin="round"
         stroke-miterlimit="10"
         fill="none"
         id="path129" /></g><g
       clip-path="url(#clip5)"
       id="g145"><path
         d="m 1550.66,1242.2 h 22 v 21.99 h -22 z"
         stroke="#ff0000"
         stroke-width="3.4375"
         stroke-linejoin="round"
         stroke-miterlimit="10"
         fill="#ff0000"
         id="path133" /><path
         d="m 1798.66,1242.2 h 22 v 21.99 h -22 z"
         stroke="#ff0000"
         stroke-width="3.4375"
         stroke-linejoin="round"
         stroke-miterlimit="10"
         fill="#ff0000"
         id="path135" /><path
         d="m 2046.66,646.195 h 22 v 21.999 h -22 z"
         stroke="#ff0000"
         stroke-width="3.4375"
         stroke-linejoin="round"
         stroke-miterlimit="10"
         fill="#ff0000"
         id="path137" /><path
         d="m 2294.66,646.195 h 22 v 21.999 h -22 z"
         stroke="#ff0000"
         stroke-width="3.4375"
         stroke-linejoin="round"
         stroke-miterlimit="10"
         fill="#ff0000"
         id="path139" /><path
         d="m 2542.66,646.195 h 22 v 21.999 h -22 z"
         stroke="#ff0000"
         stroke-width="3.4375"
         stroke-linejoin="round"
         stroke-miterlimit="10"
         fill="#ff0000"
         id="path141" /><path
         d="m 2790.66,646.195 h 22 v 21.999 h -22 z"
         stroke="#ff0000"
         stroke-width="3.4375"
         stroke-linejoin="round"
         stroke-miterlimit="10"
         fill="#ff0000"
         id="path143" /></g><g
       clip-path="url(#clip6)"
       id="g149"><path
         d="m 1562,1254 h 248.06 l 248.01,-597 h 247.01 l 248,597 H 2801"
         stroke="#00b050"
         stroke-width="10.3125"
         stroke-linecap="round"
         stroke-linejoin="round"
         stroke-miterlimit="10"
         fill="none"
         id="path147" /></g><g
       clip-path="url(#clip7)"
       id="g163"><path
         d="m 1561.66,1242.2 11,10.99 -11,11 -11,-11 z"
         stroke="#00b050"
         stroke-width="3.4375"
         stroke-linejoin="round"
         stroke-miterlimit="10"
         fill="#00b050"
         id="path151" /><path
         d="m 1809.66,1242.2 11,10.99 -11,11 -11,-11 z"
         stroke="#00b050"
         stroke-width="3.4375"
         stroke-linejoin="round"
         stroke-miterlimit="10"
         fill="#00b050"
         id="path153" /><path
         d="m 2057.66,646.195 11,11 -11,10.999 -11,-10.999 z"
         stroke="#00b050"
         stroke-width="3.4375"
         stroke-linejoin="round"
         stroke-miterlimit="10"
         fill="#00b050"
         id="path155" /><path
         d="m 2305.66,646.195 11,11 -11,10.999 -11,-10.999 z"
         stroke="#00b050"
         stroke-width="3.4375"
         stroke-linejoin="round"
         stroke-miterlimit="10"
         fill="#00b050"
         id="path157" /><path
         d="m 2553.66,1242.2 11,10.99 -11,11 -11,-11 z"
         stroke="#00b050"
         stroke-width="3.4375"
         stroke-linejoin="round"
         stroke-miterlimit="10"
         fill="#00b050"
         id="path159" /><path
         d="m 2801.66,1242.2 11,10.99 -11,11 -11,-11 z"
         stroke="#00b050"
         stroke-width="3.4375"
         stroke-linejoin="round"
         stroke-miterlimit="10"
         fill="#00b050"
         id="path161" /></g><g
       clip-path="url(#clip8)"
       id="g167"><path
         d="m 1562,657 h 248.06 248.01 l 247.01,597 h 248 247.92"
         stroke="#00b0f0"
         stroke-width="10.3125"
         stroke-linecap="round"
         stroke-linejoin="round"
         stroke-miterlimit="10"
         fill="none"
         id="path165" /></g><g
       clip-path="url(#clip9)"
       id="g181"><path
         d="m 1572.66,657.195 c 0,6.075 -4.92,10.999 -11,10.999 -6.07,0 -11,-4.924 -11,-10.999 0,-6.075 4.93,-11 11,-11 6.08,0 11,4.925 11,11 z"
         stroke="#00b0f0"
         stroke-width="3.4375"
         stroke-linejoin="round"
         stroke-miterlimit="10"
         fill="#00b0f0"
         id="path169" /><path
         d="m 1820.66,657.195 c 0,6.075 -4.92,10.999 -11,10.999 -6.07,0 -11,-4.924 -11,-10.999 0,-6.075 4.93,-11 11,-11 6.08,0 11,4.925 11,11 z"
         stroke="#00b0f0"
         stroke-width="3.4375"
         stroke-linejoin="round"
         stroke-miterlimit="10"
         fill="#00b0f0"
         id="path171" /><path
         d="m 2068.66,657.195 c 0,6.075 -4.92,10.999 -11,10.999 -6.07,0 -11,-4.924 -11,-10.999 0,-6.075 4.93,-11 11,-11 6.08,0 11,4.925 11,11 z"
         stroke="#00b0f0"
         stroke-width="3.4375"
         stroke-linejoin="round"
         stroke-miterlimit="10"
         fill="#00b0f0"
         id="path173" /><path
         d="m 2316.66,1253.19 c 0,6.08 -4.92,11 -11,11 -6.07,0 -11,-4.92 -11,-11 0,-6.07 4.93,-10.99 11,-10.99 6.08,0 11,4.92 11,10.99 z"
         stroke="#00b0f0"
         stroke-width="3.4375"
         stroke-linejoin="round"
         stroke-miterlimit="10"
         fill="#00b0f0"
         id="path175" /><path
         d="m 2564.66,1253.19 c 0,6.08 -4.92,11 -11,11 -6.07,0 -11,-4.92 -11,-11 0,-6.07 4.93,-10.99 11,-10.99 6.08,0 11,4.92 11,10.99 z"
         stroke="#00b0f0"
         stroke-width="3.4375"
         stroke-linejoin="round"
         stroke-miterlimit="10"
         fill="#00b0f0"
         id="path177" /><path
         d="m 2812.66,1253.19 c 0,6.08 -4.92,11 -11,11 -6.07,0 -11,-4.92 -11,-11 0,-6.07 4.93,-10.99 11,-10.99 6.08,0 11,4.92 11,10.99 z"
         stroke="#00b0f0"
         stroke-width="3.4375"
         stroke-linejoin="round"
         stroke-miterlimit="10"
         fill="#00b0f0"
         id="path179" /></g><g
       clip-path="url(#clip10)"
       id="g185"><path
         d="m 1562,777 248.06,-120 h 248.01 247.01 248 L 2801,777"
         stroke="#7f7f7f"
         stroke-width="10.3125"
         stroke-linecap="round"
         stroke-linejoin="round"
         stroke-miterlimit="10"
         fill="none"
         id="path183" /></g><g
       clip-path="url(#clip11)"
       id="g199"><path
         d="m 1561.66,765.195 11,21.999 h -22 z"
         stroke="#7f7f7f"
         stroke-width="3.4375"
         stroke-linejoin="round"
         stroke-miterlimit="10"
         fill="#7f7f7f"
         id="path187" /><path
         d="m 1809.66,646.195 11,21.999 h -22 z"
         stroke="#7f7f7f"
         stroke-width="3.4375"
         stroke-linejoin="round"
         stroke-miterlimit="10"
         fill="#7f7f7f"
         id="path189" /><path
         d="m 2057.66,646.195 11,21.999 h -22 z"
         stroke="#7f7f7f"
         stroke-width="3.4375"
         stroke-linejoin="round"
         stroke-miterlimit="10"
         fill="#7f7f7f"
         id="path191" /><path
         d="m 2305.66,646.195 11,21.999 h -22 z"
         stroke="#7f7f7f"
         stroke-width="3.4375"
         stroke-linejoin="round"
         stroke-miterlimit="10"
         fill="#7f7f7f"
         id="path193" /><path
         d="m 2553.66,646.195 11,21.999 h -22 z"
         stroke="#7f7f7f"
         stroke-width="3.4375"
         stroke-linejoin="round"
         stroke-miterlimit="10"
         fill="#7f7f7f"
         id="path195" /><path
         d="m 2801.66,765.195 11,21.999 h -22 z"
         stroke="#7f7f7f"
         stroke-width="3.4375"
         stroke-linejoin="round"
         stroke-miterlimit="10"
         fill="#7f7f7f"
         id="path197" /></g><g
       clip-path="url(#clip12)"
       id="g203"><text
         fill="#595959"
         font-family="Calibri, Calibri_MSFontService, sans-serif"
         font-weight="400"
         font-size="41px"
         transform="translate(1378.86,1265)"
         id="text201">0</text></g><g
       clip-path="url(#clip13)"
       id="g207"><text
         fill="#595959"
         font-family="Calibri, Calibri_MSFontService, sans-serif"
         font-weight="400"
         font-size="41px"
         transform="translate(1378.86,1146)"
         id="text205">2</text></g><g
       clip-path="url(#clip14)"
       id="g211"><text
         fill="#595959"
         font-family="Calibri, Calibri_MSFontService, sans-serif"
         font-weight="400"
         font-size="41px"
         transform="translate(1378.86,1027)"
         id="text209">4</text></g><g
       clip-path="url(#clip15)"
       id="g215"><text
         fill="#595959"
         font-family="Calibri, Calibri_MSFontService, sans-serif"
         font-weight="400"
         font-size="41px"
         transform="translate(1378.86,907)"
         id="text213">6</text></g><g
       clip-path="url(#clip16)"
       id="g219"><text
         fill="#595959"
         font-family="Calibri, Calibri_MSFontService, sans-serif"
         font-weight="400"
         font-size="41px"
         transform="translate(1378.86,788)"
         id="text217">8</text></g><g
       clip-path="url(#clip17)"
       id="g223"><text
         fill="#595959"
         font-family="Calibri, Calibri_MSFontService, sans-serif"
         font-weight="400"
         font-size="41px"
         transform="translate(1357.96,669)"
         id="text221">10</text></g><g
       clip-path="url(#clip19)"
       id="g231"><text
         fill="#595959"
         font-family="Calibri, Calibri_MSFontService, sans-serif"
         font-weight="400"
         font-size="41px"
         transform="translate(1534.74,1319)"
         id="text229">-10</text></g><g
       clip-path="url(#clip20)"
       id="g235"><text
         fill="#595959"
         font-family="Calibri, Calibri_MSFontService, sans-serif"
         font-weight="400"
         font-size="41px"
         transform="translate(1799.36,1319)"
         id="text233">0</text></g><g
       clip-path="url(#clip21)"
       id="g239"><text
         fill="#595959"
         font-family="Calibri, Calibri_MSFontService, sans-serif"
         font-weight="400"
         font-size="41px"
         transform="translate(2036.77,1319)"
         id="text237">10</text></g><g
       clip-path="url(#clip22)"
       id="g243"><text
         fill="#595959"
         font-family="Calibri, Calibri_MSFontService, sans-serif"
         font-weight="400"
         font-size="41px"
         transform="translate(2284.62,1319)"
         id="text241">20</text></g><g
       clip-path="url(#clip23)"
       id="g247"><text
         fill="#595959"
         font-family="Calibri, Calibri_MSFontService, sans-serif"
         font-weight="400"
         font-size="41px"
         transform="translate(2532.48,1319)"
         id="text245">30</text></g><g
       clip-path="url(#clip24)"
       id="g251"><text
         fill="#595959"
         font-family="Calibri, Calibri_MSFontService, sans-serif"
         font-weight="400"
         font-size="41px"
         transform="translate(2780.34,1319)"
         id="text249">40</text></g><g
       clip-path="url(#clip25)"
       id="g255"><path
         d="m 1871,1399 h 88"
         stroke="#ff0000"
         stroke-width="10.3125"
         stroke-linecap="round"
         stroke-linejoin="round"
         stroke-miterlimit="10"
         fill="none"
         fill-rule="evenodd"
         id="path253" /></g><g
       clip-path="url(#clip26)"
       id="g259"><path
         d="m 1903.56,1387.55 h 22 v 22 h -22 z"
         stroke="#ff0000"
         stroke-width="3.4375"
         stroke-linejoin="round"
         stroke-miterlimit="10"
         fill="#ff0000"
         id="path257" /></g><g
       clip-path="url(#clip27)"
       id="g263"><text
         fill="#595959"
         font-family="Calibri, Calibri_MSFontService, sans-serif"
         font-weight="400"
         font-size="41px"
         transform="translate(1967.8,1410)"
         id="text261">R</text></g><g
       clip-path="url(#clip28)"
       id="g267"><path
         d="m 2024,1399 h 88"
         stroke="#00b050"
         stroke-width="10.3125"
         stroke-linecap="round"
         stroke-linejoin="round"
         stroke-miterlimit="10"
         fill="none"
         fill-rule="evenodd"
         id="path265" /></g><g
       clip-path="url(#clip29)"
       id="g271"><path
         d="m 2068.5,1387.5 11,11 -11,11 -11,-11 z"
         stroke="#00b050"
         stroke-width="3.4375"
         stroke-linejoin="round"
         stroke-miterlimit="10"
         fill="#00b050"
         id="path269" /></g><g
       clip-path="url(#clip30)"
       id="g275"><text
         fill="#595959"
         font-family="Calibri, Calibri_MSFontService, sans-serif"
         font-weight="400"
         font-size="41px"
         transform="translate(2121.32,1410)"
         id="text273">G</text></g><g
       clip-path="url(#clip31)"
       id="g279"><path
         d="m 2181,1399 h 88"
         stroke="#00b0f0"
         stroke-width="10.3125"
         stroke-linecap="round"
         stroke-linejoin="round"
         stroke-miterlimit="10"
         fill="none"
         fill-rule="evenodd"
         id="path277" /></g><g
       clip-path="url(#clip32)"
       id="g283"><path
         d="m 2236,1398 c 0,6.07 -4.93,11 -11,11 -6.07,0 -11,-4.93 -11,-11 0,-6.08 4.93,-11 11,-11 6.07,0 11,4.92 11,11 z"
         stroke="#00b0f0"
         stroke-width="3.4375"
         stroke-linejoin="round"
         stroke-miterlimit="10"
         fill="#00b0f0"
         id="path281" /></g><g
       clip-path="url(#clip33)"
       id="g287"><text
         fill="#595959"
         font-family="Calibri, Calibri_MSFontService, sans-serif"
         font-weight="400"
         font-size="41px"
         transform="translate(2278.48,1410)"
         id="text285">B</text></g><g
       clip-path="url(#clip34)"
       id="g291"><path
         d="m 2335,1399 h 88"
         stroke="#7f7f7f"
         stroke-width="10.3125"
         stroke-linecap="round"
         stroke-linejoin="round"
         stroke-miterlimit="10"
         fill="none"
         fill-rule="evenodd"
         id="path289" /></g><g
       clip-path="url(#clip35)"
       id="g295"><path
         d="m 2378.5,1387.5 11,22 h -22 z"
         stroke="#7f7f7f"
         stroke-width="3.4375"
         stroke-linejoin="round"
         stroke-miterlimit="10"
         fill="#7f7f7f"
         id="path293" /></g><g
       clip-path="url(#clip36)"
       id="g299"><text
         fill="#595959"
         font-family="Calibri, Calibri_MSFontService, sans-serif"
         font-weight="400"
         font-size="41px"
         transform="translate(2432.04,1410)"
         id="text297">L</text></g><rect
       x="1328.3911"
       y="608.63184"
       width="1648.2179"
       height="856.97711"
       stroke="#d9d9d9"
       stroke-width="3.21965"
       stroke-linejoin="round"
       stroke-miterlimit="10"
       fill="none"
       id="rect301" /></g></svg>
